<svg width="692" height="436" fill="none" xmlns="http://www.w3.org/2000/svg"><g clip-path="url(#clip0)"><path d="M594.074 352.472H74.8a13.378 13.378 0 01-9.45-3.924 13.406 13.406 0 01-3.92-9.459V18.569a9.821 9.821 0 012.872-6.93 9.801 9.801 0 016.923-2.874H597.48a9.969 9.969 0 017.042 2.925 9.992 9.992 0 012.922 7.05v320.349a13.407 13.407 0 01-3.92 9.459 13.38 13.38 0 01-9.45 3.924z" fill="#F2F2F2"/><path d="M575.131 335.952H91.181c-7.094 0-12.865-5.41-12.865-12.06V44.78c0-4.931 4.276-8.944 9.533-8.944h490.456c5.344 0 9.692 4.079 9.692 9.092v278.964c0 6.65-5.772 12.06-12.866 12.06z" fill="#A5A58D"/><path d="M607.258 20.238H61.242v-6.814a13.45 13.45 0 013.937-9.49A13.423 13.423 0 0174.66 0h519.178a13.42 13.42 0 019.482 3.934 13.449 13.449 0 013.937 9.49v6.814z" fill="#E28500"/><path d="M85.629 13.613a3.473 3.473 0 003.47-3.474 3.473 3.473 0 00-3.47-3.474 3.473 3.473 0 00-3.471 3.474 3.473 3.473 0 003.47 3.474zM98.803 13.613a3.473 3.473 0 003.471-3.474 3.473 3.473 0 00-3.47-3.474 3.473 3.473 0 00-3.472 3.474 3.473 3.473 0 003.471 3.474zM111.978 13.613a3.473 3.473 0 003.471-3.474 3.473 3.473 0 00-3.471-3.474 3.473 3.473 0 00-3.471 3.474 3.473 3.473 0 003.471 3.474z" fill="#A5A58D"/><path d="M318.84 299.94H150.428a14.191 14.191 0 01-10.022-4.163 14.214 14.214 0 01-4.158-10.032V82.028a10.633 10.633 0 013.109-7.503 10.612 10.612 0 017.496-3.113h175.393a10.78 10.78 0 017.615 3.162 10.803 10.803 0 013.16 7.623v203.548a14.218 14.218 0 01-4.158 10.032 14.195 14.195 0 01-10.023 4.163zM146.853 73.034a8.99 8.99 0 00-6.35 2.637 9.008 9.008 0 00-2.635 6.357v203.717a12.593 12.593 0 003.683 8.886 12.564 12.564 0 008.877 3.686H318.84a12.567 12.567 0 008.877-3.686 12.593 12.593 0 003.683-8.886V82.197a9.18 9.18 0 00-2.684-6.476 9.16 9.16 0 00-6.47-2.687H146.853z" fill="#CCC"/><path d="M163.393 285.745h142.483c3.438 0 6.736-1.367 9.167-3.801a12.987 12.987 0 003.797-9.177V98.742c0-3.442-1.366-6.743-3.797-9.177a12.957 12.957 0 00-9.167-3.801H163.393a12.96 12.96 0 00-9.168 3.801 12.986 12.986 0 00-3.797 9.177v174.025c0 3.442 1.366 6.743 3.797 9.177a12.959 12.959 0 009.168 3.801z" fill="#E6E6E6"/><path d="M273.934 121.27h-78.6a5.264 5.264 0 01-3.724-1.544 5.275 5.275 0 013.724-9.001h78.6a5.272 5.272 0 013.724 9.001 5.26 5.26 0 01-3.724 1.544zM273.934 235.639h-78.6a5.273 5.273 0 010-10.545h78.6a5.26 5.26 0 013.724 1.544 5.275 5.275 0 01-3.724 9.001zM273.934 260.783h-78.6a5.264 5.264 0 01-3.724-1.544 5.275 5.275 0 010-7.456 5.264 5.264 0 013.724-1.544h78.6a5.26 5.26 0 013.724 1.544 5.275 5.275 0 010 7.456 5.26 5.26 0 01-3.724 1.544zM235.039 198.732c17.454 0 31.602-14.163 31.602-31.633 0-17.471-14.148-31.634-31.602-31.634-17.453 0-31.601 14.163-31.601 31.634 0 17.47 14.148 31.633 31.601 31.633z" fill="#A5A58D"/><path d="M438.332 138.111l-13.805 2.915a.804.804 0 00-.564.443.812.812 0 00.008.718l1.287 2.536-62.43 31.721a.8.8 0 00-.403.472.815.815 0 00.048.619.798.798 0 00.471.403.81.81 0 00.618-.047l62.429-31.721 1.287 2.537a.814.814 0 00.573.43.818.818 0 00.368-.016.817.817 0 00.322-.178l10.499-9.434a.818.818 0 00.256-.455.814.814 0 00-.964-.943z" fill="#E6E6E6"/><path d="M438.332 216.958l-13.805-2.915a.815.815 0 01-.643-.803.811.811 0 01.087-.358l1.287-2.536-62.43-31.721a.8.8 0 01-.403-.472.815.815 0 01.048-.618.802.802 0 01.471-.404.81.81 0 01.618.047l62.429 31.721 1.287-2.537a.814.814 0 01.573-.43.818.818 0 01.368.016c.119.034.23.095.322.178l10.499 9.435a.812.812 0 01-.708 1.397zM483.835 156.162a17.81 17.81 0 01-9.904-3.007 17.838 17.838 0 01-6.566-8.009 17.86 17.86 0 013.864-19.447 17.822 17.822 0 0119.428-3.868 17.838 17.838 0 0111.004 16.486 17.875 17.875 0 01-5.227 12.613 17.837 17.837 0 01-12.599 5.232zm0-34.067a16.19 16.19 0 00-9.004 2.734 16.22 16.22 0 00-5.969 7.28 16.246 16.246 0 00-.922 9.373 16.224 16.224 0 004.435 8.306 16.201 16.201 0 0017.662 3.517 16.212 16.212 0 007.273-5.975 16.24 16.24 0 002.731-9.013 16.248 16.248 0 00-4.752-11.465 16.219 16.219 0 00-11.454-4.757zM483.835 234.841a17.81 17.81 0 01-9.904-3.007 17.838 17.838 0 01-6.566-8.009 17.86 17.86 0 013.864-19.447 17.822 17.822 0 0119.428-3.868 17.838 17.838 0 0111.004 16.486 17.874 17.874 0 01-5.227 12.613 17.837 17.837 0 01-12.599 5.232zm0-34.067a16.19 16.19 0 00-9.004 2.734 16.225 16.225 0 00-6.891 16.653 16.224 16.224 0 004.435 8.306 16.201 16.201 0 0017.662 3.517 16.212 16.212 0 007.273-5.975 16.24 16.24 0 002.731-9.013 16.248 16.248 0 00-4.752-11.465 16.219 16.219 0 00-11.454-4.757z" fill="#E6E6E6"/><path d="M482.422 147.111a2.37 2.37 0 01-1.429-.476l-.025-.019-5.381-4.12a2.392 2.392 0 01-.855-2.518 2.403 2.403 0 011.114-1.454 2.386 2.386 0 012.651.173l3.485 2.675 8.235-10.754a2.377 2.377 0 011.584-.917 2.391 2.391 0 011.767.474h.001l-.051.071.052-.071a2.395 2.395 0 01.442 3.355l-9.686 12.644a2.393 2.393 0 01-1.902.934l-.002.003zM476.1 224.739a1.219 1.219 0 01-.264-1.326c.061-.147.151-.281.264-.394l13.751-13.766a1.218 1.218 0 011.718.001 1.215 1.215 0 01.001 1.72l-13.752 13.765a1.214 1.214 0 01-1.718 0z" fill="#E6E6E6"/><path d="M490.76 224.739a1.232 1.232 0 00.356-.86 1.222 1.222 0 00-.356-.86l-13.752-13.766a1.218 1.218 0 00-1.718.001 1.215 1.215 0 00-.001 1.72l13.752 13.765a1.214 1.214 0 001.719 0z" fill="#E6E6E6"/><path d="M514.616 178.187a1.066 1.066 0 01-.865-.434l-6.624-8.892a.279.279 0 00-.109-.086.278.278 0 00-.137-.02.272.272 0 00-.214.161l-3.396 7.954a1.074 1.074 0 01-1.682.403 1.071 1.071 0 01-.352-.557l-6.778-26.26a1.084 1.084 0 01.399-1.135 1.075 1.075 0 011.2-.059l23.208 13.996a1.08 1.08 0 01-.433 1.995l-8.582.988a.27.27 0 00-.184.426l6.624 8.891a1.083 1.083 0 01-.22 1.509l-1.213.906c-.185.139-.41.214-.642.214zM552.305 197.529h-29.171a8.096 8.096 0 01-5.729-2.375 8.116 8.116 0 010-11.471 8.097 8.097 0 015.729-2.376h29.171c2.149 0 4.21.855 5.73 2.376a8.115 8.115 0 010 11.471 8.1 8.1 0 01-5.73 2.375z" fill="#E28500"/><path d="M198.786 141.472l-1.213-.905a1.084 1.084 0 01-.22-1.51l6.624-8.891a.264.264 0 00.031-.266.267.267 0 00-.215-.159l-8.582-.988a1.082 1.082 0 01-.929-.843 1.078 1.078 0 01.496-1.152l23.208-13.996a1.076 1.076 0 011.599 1.193l-6.778 26.26a1.083 1.083 0 01-.351.558 1.082 1.082 0 01-1.251.094 1.077 1.077 0 01-.431-.498l-3.397-7.954a.262.262 0 00-.086-.109.257.257 0 00-.128-.051.268.268 0 00-.246.106l-6.624 8.891a1.06 1.06 0 01-.708.423 1.068 1.068 0 01-.799-.203zM153.636 152.918a8.122 8.122 0 018.103-8.112h29.171c2.149 0 4.21.855 5.729 2.376a8.114 8.114 0 01-5.729 13.847h-29.171a8.121 8.121 0 01-8.103-8.111z" fill="#3F3D56"/><path d="M586.135 299.951a8.16 8.16 0 00-.562-12.495l9.06-27.53-14.523 3.942-6.376 25.539a8.201 8.201 0 007.007 12.734 8.194 8.194 0 005.394-2.19zM673.244 298.328a8.157 8.157 0 01-1.714-9.791 8.153 8.153 0 012.276-2.703l-9.06-27.53 14.523 3.942 6.376 25.539a8.204 8.204 0 01-1.522 10.785 8.184 8.184 0 01-10.879-.242zM630.678 160.805c10.992 0 19.902-8.92 19.902-19.922 0-11.003-8.91-19.922-19.902-19.922-10.991 0-19.901 8.919-19.901 19.922 0 11.002 8.91 19.922 19.901 19.922zM611.892 426.131h-9.934l-4.726-38.356h14.662l-.002 38.356z" fill="#A0616A"/><path d="M614.425 435.771l-32.031-.001v-.406a12.482 12.482 0 017.696-11.53 12.462 12.462 0 014.771-.95h.001l19.564.001-.001 12.886z" fill="#2F2E41"/><path d="M645.924 426.131h-9.933l-4.727-38.356h14.663l-.003 38.356z" fill="#A0616A"/><path d="M648.458 435.771l-32.032-.001v-.406a12.5 12.5 0 013.652-8.825 12.461 12.461 0 018.816-3.655h.001l19.564.001-.001 12.886zM611.73 414.92l-11.669-.032c-.5.064-1.008.022-1.491-.124a3.582 3.582 0 01-1.312-.72 3.649 3.649 0 01-1.279-2.693l1.344-129.274 53.85-.538-3.124 128.859a3.635 3.635 0 01-1.092 2.53 3.622 3.622 0 01-2.553 1.032h-12.033a3.634 3.634 0 01-3.644-3.513l-2.912-77.34a.377.377 0 00-.116-.281.383.383 0 00-.283-.11.397.397 0 00-.41.379l-10.133 78.479a3.648 3.648 0 01-3.143 3.346z" fill="#2F2E41"/><path d="M621.776 290.884c-7.956 0-16.365-1.423-23.954-5.583a3.675 3.675 0 01-1.914-3.152l-1.062-59-1.493-12.625a38.486 38.486 0 013.842-21.87 38.438 38.438 0 0115.28-16.098l.69-.394 1.943-4.54a2.006 2.006 0 011.92-1.227l26.126.747a2.036 2.036 0 011.864 1.386l1.213 3.644a38.259 38.259 0 0115.434 16.627 38.32 38.32 0 013.316 22.452l-10.71 70.948a3.643 3.643 0 01-2.301 2.864c-4.739 1.802-16.825 5.821-30.194 5.821z" fill="#3F3D56"/><path d="M672.832 282.884a2.04 2.04 0 01-1.893-1.297l-13.267-34.371-10.849-53.547a10.56 10.56 0 019.239-12.601 10.549 10.549 0 0111.506 8.767l3.036 18.234 15.057 69.804a2.036 2.036 0 01-1.517 2.401l-10.852 2.556a1.98 1.98 0 01-.46.054zM587.358 282.884c-.156 0-.31-.018-.461-.054l-10.852-2.556a2.034 2.034 0 01-1.517-2.401l15.061-69.823 3.032-18.215a10.564 10.564 0 016.308-7.995 10.543 10.543 0 0110.122 1.062 10.56 10.56 0 014.315 10.767l-10.83 53.482-13.285 34.437a2.037 2.037 0 01-1.893 1.296z" fill="#3F3D56"/><path d="M646.169 159.888c-1.842 1.061-9.126 1.765-9.645-.299l-.011-.045c-.361-1.512-.061-3.091.043-4.642.103-1.551-.048-3.256-1.104-4.396-1.967-2.126-5.467-.999-8.312-1.537a7.018 7.018 0 01-4.146-2.721 7.033 7.033 0 01-1.316-4.784c.041-.322.104-.645.175-.968a5.408 5.408 0 00-1.177-4.675 5.41 5.41 0 00-4.435-1.88c-2.875.165-5.979 1.037-8.357-1.095-1.84-1.648-2.289-5.939-1.481-8.274 1.359-3.925 10.059-5.979 13.858-7.109a32.891 32.891 0 0127.899 4.583c2.4 1.693 4.641 3.82 5.663 6.575 1.023 2.754.53 6.229-1.777 8.048a14.87 14.87 0 013.441 14.443c-1.139 3.674-6.575 7.196-9.318 8.776z" fill="#2F2E41"/><path d="M92.025 270.193a8.138 8.138 0 01-5.924-3.531 8.157 8.157 0 01-1.098-6.813l-23.721-16.623 13.99-5.546 20.38 16.636a8.202 8.202 0 012.003 14.399 8.185 8.185 0 01-5.63 1.478z" fill="#FFB8B8"/><path d="M79.144 257.557l-21.482-12.472a17.875 17.875 0 01-8.62-11.548 17.163 17.163 0 012.59-13.372l17.783-26.257a8.88 8.88 0 0111.778-2.727 8.905 8.905 0 013.6 11.552L70.91 231.857l14.067 12.399a3.656 3.656 0 011.155 3.508l-1.592 7.403a3.616 3.616 0 01-2.09 2.57 3.61 3.61 0 01-3.304-.18z" fill="#3F3D56"/><path d="M176.48 199.212a8.153 8.153 0 01-8.15 5.68 8.148 8.148 0 01-3.407-.928l-21.13 19.819-2.544-14.846 20.455-16.544a8.186 8.186 0 0114.489 1 8.208 8.208 0 01.287 5.819zM89.937 173.195c10.991 0 19.902-8.919 19.902-19.922 0-11.002-8.911-19.922-19.902-19.922-10.992 0-19.902 8.92-19.902 19.922 0 11.003 8.91 19.922 19.902 19.922zM148.535 425.809l9.522-2.836-6.396-38.113-14.053 4.185 10.927 36.764z" fill="#FFB8B8"/><path d="M145.182 423.42l18.751-5.585h.001a12.45 12.45 0 0113.235 4.096 12.489 12.489 0 012.27 4.307l.116.389-30.702 9.144-3.671-12.351z" fill="#2F2E41"/><path d="M44.218 425.32h9.934l4.726-38.356h-9.8l-4.86 38.356z" fill="#FFB8B8"/><path d="M41.684 422.074l19.564-.001a12.46 12.46 0 0111.52 7.704c.626 1.514.948 3.137.948 4.776v.406l-32.031.001v-12.886zM141.428 412.08l-37.263-107.333a1.19 1.19 0 00-1.12-.817 1.162 1.162 0 00-1.156.764L58.952 412.142a3.633 3.633 0 01-3.563 2.29l-11.207-.544a3.642 3.642 0 01-3.4-2.942 3.653 3.653 0 01.043-1.602L81.44 249.112l40.748-3.329.266.384c.22.319 22.022 32.448 22.009 87.918l13.97 76.137a3.655 3.655 0 01-2.039 3.965 3.643 3.643 0 01-1.547.345h-9.975a3.651 3.651 0 01-3.444-2.452z" fill="#2F2E41"/><path d="M66.916 212.768a25.402 25.402 0 014.338-24.471 25.044 25.044 0 0110.189-7.537 25.006 25.006 0 0112.57-1.58l1.006.137a25.324 25.324 0 0114.356 7.031 25.374 25.374 0 017.297 14.232l7.61 48.448-43.384 3.278-.312.023-13.67-39.561z" fill="#3F3D56"/><path d="M130.224 232.427a17.134 17.134 0 01-12.432-5.994L97.27 202.619a9.187 9.187 0 01-2.322-6.513 8.82 8.82 0 013.322-6.452 8.896 8.896 0 0111.337.192l24.475 20.996 15.057-10.485a3.647 3.647 0 013.729-.26l7.207 3.652a3.649 3.649 0 011.818 4.391 3.645 3.645 0 01-.896 1.455l-17.918 17.814a17.15 17.15 0 01-12.164 5.03c-.23 0-.46-.004-.691-.012z" fill="#3F3D56"/><path d="M105.071 148.298a25.918 25.918 0 007.742 1.705c2.668.034 5.504-.892 6.964-2.926a7.29 7.29 0 00.802-6.034 14.334 14.334 0 00-7.903-9.293 16.812 16.812 0 00-12.898-.416c-1.497-4.556-7.137-7.036-12.357-7.176-10.664-.287-20.198 6.991-24.831 15.743-4.633 8.752-5.31 18.756-5.598 28.468-.07 2.369-.1 4.839 1.021 6.977 1.67 3.184 5.462 4.899 9.037 6.259a169.503 169.503 0 0028.901 8.132c-4.731-3.027-6.232-9.544-3.235-14.048 1.466-2.203 3.874-4.038 4.264-6.59.467-3.061-2.142-5.737-3.107-8.699a8.85 8.85 0 012.52-9.125 11.058 11.058 0 019.997-2.373" fill="#2F2E41"/><path d="M201.766 436H.81a.81.81 0 010-1.622h200.956a.81.81 0 110 1.622zM691.19 436H548.576a.81.81 0 010-1.622H691.19a.81.81 0 110 1.622z" fill="#CCC"/></g><defs><clipPath id="clip0"><path fill="#fff" d="M0 0h692v436H0z"/></clipPath></defs></svg>