<svg data-name="Layer 1" xmlns="http://www.w3.org/2000/svg" width="854" height="537.526"><path d="M733.15 434.548H92.31a16.519 16.519 0 01-16.5-16.5V22.894A12.102 12.102 0 0187.9 10.806h649.453a12.311 12.311 0 0112.297 12.297v394.945a16.519 16.519 0 01-16.5 16.5z" fill="#f2f2f2"/><path d="M709.772 414.181H112.527c-8.755 0-15.877-6.67-15.877-14.868V55.208c0-6.08 5.278-11.027 11.765-11.027H713.69c6.595 0 11.96 5.028 11.96 11.209v343.923c0 8.198-7.122 14.868-15.877 14.868z" fill="#fff"/><path d="M749.42 24.95H75.58v-8.4A16.574 16.574 0 0192.14 0h640.72a16.574 16.574 0 0116.56 16.55z" fill="#e28500"/><circle cx="105.674" cy="12.5" r="4.283" fill="#fff"/><circle cx="121.933" cy="12.5" r="4.283" fill="#fff"/><circle cx="138.192" cy="12.5" r="4.283" fill="#fff"/><path d="M393.482 369.782H185.644a17.52 17.52 0 01-17.5-17.5V101.13a13.103 13.103 0 0113.088-13.089h216.453a13.312 13.312 0 0113.297 13.298v250.944a17.52 17.52 0 01-17.5 17.5zM181.232 90.04a11.1 11.1 0 00-11.088 11.089v251.153a15.517 15.517 0 0015.5 15.5h207.838a15.518 15.518 0 0015.5-15.5V101.338a11.31 11.31 0 00-11.297-11.298z" fill="#ccc"/><path d="M201.644 352.282h175.838a16 16 0 0016-16V121.735a16 16 0 00-16-16H201.644a16 16 0 00-16 16v214.547a16 16 0 0016 16z" fill="#e6e6e6"/><path d="M338.063 149.509h-97a6.5 6.5 0 010-13h97a6.5 6.5 0 110 13zM338.063 290.509h-97a6.5 6.5 0 010-13h97a6.5 6.5 0 110 13zM338.063 321.509h-97a6.5 6.5 0 010-13h97a6.5 6.5 0 110 13z" fill="#fff"/><circle cx="290.063" cy="206.009" r="39" fill="#fff"/><path d="M540.947 170.271l-17.037 3.594a1 1 0 00-.685 1.43l1.587 3.128-77.044 39.107a1 1 0 10.905 1.784l77.045-39.108 1.587 3.128a1 1 0 001.56.292l12.957-11.632a1 1 0 00-.875-1.723z" fill="#e6e6e6"/><path d="M540.947 267.478l-17.037-3.593a1 1 0 01-.685-1.431l1.587-3.128-77.044-39.107a1 1 0 11.905-1.783l77.045 39.107 1.587-3.128a1 1 0 011.56-.291l12.957 11.631a1 1 0 01-.875 1.723zM597.102 192.526a22 22 0 1122-22 22.025 22.025 0 01-22 22zm0-42a20 20 0 1020 20 20.023 20.023 0 00-20-20zM597.102 289.526a22 22 0 1122-22 22.025 22.025 0 01-22 22zm0-42a20 20 0 1020 20 20.023 20.023 0 00-20-20z" fill="#e6e6e6"/><path data-name="Path 395" d="M595.359 181.366a2.93 2.93 0 01-1.763-.586l-.032-.023-6.64-5.08a2.95 2.95 0 113.59-4.683l4.302 3.298 10.163-13.26a2.95 2.95 0 014.135-.545h.001l-.063.088.065-.088a2.953 2.953 0 01.545 4.136l-11.954 15.59a2.951 2.951 0 01-2.347 1.15z" fill="#e6e6e6"/><path d="M587.556 277.071a1.5 1.5 0 010-2.12l16.971-16.971a1.5 1.5 0 012.121 2.12l-16.97 16.971a1.5 1.5 0 01-2.122 0z" fill="#e6e6e6"/><path d="M605.648 277.071a1.5 1.5 0 000-2.12l-16.97-16.971a1.5 1.5 0 00-2.122 2.12l16.971 16.971a1.5 1.5 0 002.121 0z" fill="#e6e6e6"/><path d="M635.09 219.679a1.374 1.374 0 01-.194-.014 1.32 1.32 0 01-.874-.521l-8.175-10.962a.33.33 0 00-.567.067l-4.192 9.806a1.33 1.33 0 01-2.51-.19l-8.364-32.375a1.33 1.33 0 011.974-1.47l28.64 17.254a1.33 1.33 0 01-.534 2.46l-10.592 1.218a.33.33 0 00-.226.524l8.174 10.962a1.332 1.332 0 01-.27 1.86l-1.498 1.117a1.32 1.32 0 01-.792.264zM681.602 243.526h-36a10 10 0 010-20h36a10 10 0 010 20z" fill="#e28500"/><path d="M245.323 174.415l-1.497-1.117a1.332 1.332 0 01-.272-1.86l8.175-10.962a.33.33 0 00-.227-.524l-10.591-1.218a1.33 1.33 0 01-.534-2.46l28.64-17.255a1.33 1.33 0 011.974 1.471l-8.365 32.375a1.33 1.33 0 01-2.51.19l-4.191-9.806a.33.33 0 00-.567-.067l-8.175 10.962a1.321 1.321 0 01-.874.52 1.375 1.375 0 01-.194.015 1.32 1.32 0 01-.792-.264zM189.602 188.526a10.011 10.011 0 0110-10h36a10 10 0 010 20h-36a10.011 10.011 0 01-10-10z" fill="#3f3d56"/><path d="M723.351 369.796a10.056 10.056 0 00-.692-15.404l11.18-33.94-17.923 4.86-7.869 31.485a10.11 10.11 0 0015.304 13zM830.854 367.796a10.056 10.056 0 01.692-15.404l-11.18-33.94 17.923 4.86 7.869 31.485a10.11 10.11 0 01-15.304 13z" fill="#a0616a"/><circle cx="778.323" cy="173.688" r="24.561" fill="#a0616a"/><path fill="#a0616a" d="M755.138 525.359h-12.259l-5.833-47.288h18.095l-.003 47.288z"/><path d="M758.265 537.243l-39.53-.001v-.5a15.386 15.386 0 0115.386-15.387l24.145.001z" fill="#2f2e41"/><path fill="#a0616a" d="M797.138 525.359h-12.259l-5.833-47.288h18.095l-.003 47.288z"/><path d="M800.265 537.243l-39.53-.001v-.5a15.386 15.386 0 0115.386-15.387l24.145.001zM754.938 511.537l-14.4-.04a4.438 4.438 0 01-3.46-1.04 4.503 4.503 0 01-1.578-3.32l1.659-159.376 66.456-.664-3.855 158.865a4.474 4.474 0 01-4.499 4.392h-14.85a4.486 4.486 0 01-4.496-4.331l-3.594-95.35a.475.475 0 00-.493-.481.492.492 0 00-.506.466l-12.505 96.754a4.504 4.504 0 01-3.879 4.125z" fill="#2f2e41"/><path d="M767.337 358.618c-9.82 0-20.196-1.754-29.563-6.882a4.539 4.539 0 01-2.362-3.887l-1.31-72.738-1.843-15.565a47.412 47.412 0 0123.598-46.81l.852-.485 2.398-5.597a2.479 2.479 0 012.37-1.513l32.242.92a2.51 2.51 0 012.3 1.71l1.498 4.493a47.194 47.194 0 0123.138 48.179L807.44 347.91a4.497 4.497 0 01-2.84 3.53c-5.848 2.222-20.764 7.177-37.262 7.177z" fill="#3f3d56"/><path d="M830.344 348.755a2.51 2.51 0 01-2.336-1.599l-16.372-42.374-13.389-66.016a13.01 13.01 0 015.325-13.274 13.019 13.019 0 0120.277 8.547l3.747 22.48 18.58 86.058a2.51 2.51 0 01-1.87 2.96l-13.393 3.152a2.462 2.462 0 01-.569.066zM724.86 348.755a2.466 2.466 0 01-.568-.066l-13.393-3.152a2.51 2.51 0 01-1.871-2.96l18.586-86.08 3.742-22.458a13.019 13.019 0 0120.277-8.547 13.01 13.01 0 015.325 13.274L743.592 304.7l-16.395 42.456a2.511 2.511 0 01-2.337 1.598z" fill="#3f3d56"/><path d="M797.44 197.119c-2.274 1.308-11.263 2.176-11.903-.368l-.014-.056c-.445-1.864-.075-3.81.053-5.723s-.06-4.014-1.362-5.42c-2.428-2.62-6.748-1.231-10.258-1.894a8.664 8.664 0 01-6.74-9.253c.05-.398.128-.795.216-1.193a6.673 6.673 0 00-6.927-8.081c-3.548.202-7.378 1.277-10.313-1.35-2.27-2.033-2.824-7.323-1.827-10.202 1.676-4.838 12.414-7.371 17.102-8.764a40.62 40.62 0 0134.43 5.65c2.961 2.087 5.727 4.71 6.989 8.106s.653 7.68-2.193 9.922a18.332 18.332 0 014.246 17.806c-1.405 4.53-8.114 8.872-11.5 10.82z" fill="#2f2e41"/><path d="M113.569 333.11a10.056 10.056 0 01-8.667-12.754l-29.274-20.494 17.265-6.836 25.152 20.509a10.11 10.11 0 01-4.476 19.574z" fill="#ffb8b8"/><path d="M97.671 317.531l-26.51-15.376a22.056 22.056 0 01-10.638-14.237 21.14 21.14 0 013.197-16.487l21.946-32.37a10.97 10.97 0 0118.979 10.88l-17.137 35.905 17.36 15.287a4.506 4.506 0 011.425 4.325l-1.965 9.127a4.453 4.453 0 01-2.578 3.168 4.456 4.456 0 01-4.079-.222z" fill="#3f3d56"/><path d="M217.795 245.6a10.056 10.056 0 01-14.263 5.858l-26.077 24.434-3.14-18.302 25.245-20.397a10.11 10.11 0 0118.235 8.407z" fill="#ffb8b8"/><circle cx="110.992" cy="188.964" r="24.561" fill="#ffb8b8"/><path fill="#ffb8b8" d="M183.308 524.961l11.751-3.496-7.894-46.988-17.343 5.16 13.486 45.324z"/><path d="M179.17 522.016l23.14-6.885h.002a15.386 15.386 0 0119.135 10.36l.142.479-37.889 11.273z" fill="#2f2e41"/><path fill="#ffb8b8" d="M54.57 524.359h12.259l5.833-47.288H60.568l-5.998 47.288z"/><path d="M51.442 520.356h24.145a15.386 15.386 0 0115.387 15.386v.5l-39.53.001zM174.537 508.036L128.55 375.709a1.47 1.47 0 00-1.382-1.007 1.433 1.433 0 00-1.427.942l-52.99 132.468a4.479 4.479 0 01-4.396 2.823l-13.83-.67a4.5 4.5 0 01-4.144-5.602l50.123-197.544 50.287-4.104.329.474c.271.393 27.178 40.003 27.161 108.39l17.241 93.866a4.5 4.5 0 01-4.426 5.313h-12.31a4.504 4.504 0 01-4.25-3.022z" fill="#2f2e41"/><path d="M82.58 262.312a31.29 31.29 0 015.355-30.169 30.9 30.9 0 0128.086-11.24q.625.084 1.243.17a31.273 31.273 0 0126.721 26.214l9.392 59.73-53.54 4.04-.385.029z" fill="#3f3d56"/><path d="M160.71 286.549a21.137 21.137 0 01-15.342-7.389l-25.327-29.36a11.322 11.322 0 01-2.865-8.03 10.859 10.859 0 014.1-7.954 10.983 10.983 0 0113.99.237l30.205 25.885 18.582-12.926a4.496 4.496 0 014.602-.32l8.894 4.501a4.5 4.5 0 011.138 7.208l-22.113 21.962a21.174 21.174 0 01-15.011 6.201q-.425 0-.853-.015z" fill="#3f3d56"/><path d="M129.668 182.83a32.002 32.002 0 009.555 2.102c3.293.042 6.793-1.1 8.595-3.607a8.986 8.986 0 00.989-7.439 17.67 17.67 0 00-9.753-11.457 20.76 20.76 0 00-15.917-.513c-1.848-5.617-8.808-8.675-15.25-8.847-13.16-.354-24.927 8.62-30.645 19.41s-6.553 23.122-6.908 35.096c-.087 2.92-.123 5.965 1.26 8.602 2.06 3.925 6.74 6.04 11.153 7.716a209.368 209.368 0 0035.667 10.026c-5.84-3.733-7.692-11.767-3.993-17.32 1.81-2.716 4.781-4.978 5.262-8.125.576-3.773-2.643-7.072-3.833-10.724a10.898 10.898 0 013.109-11.25 13.666 13.666 0 0112.337-2.926" fill="#2f2e41"/><path d="M249 537.526H1a1 1 0 010-2h248a1 1 0 010 2zM853 537.526H677a1 1 0 010-2h176a1 1 0 010 2z" fill="#ccc"/></svg>